<svg width="289" height="48" viewBox="0 0 289 48" fill="none" xmlns="http://www.w3.org/2000/svg">
<path d="M119.501 45.3175H103.146C103.619 44.8895 103.97 44.3351 104.149 43.7196C104.394 43.0347 104.52 42.3091 104.52 41.5795V10.7698C104.52 10.0401 104.394 9.31859 104.149 8.62968C103.97 8.01821 103.623 7.46789 103.146 7.04395H110.887C110.415 7.47197 110.068 8.01821 109.885 8.62968C109.648 9.31859 109.526 10.0401 109.522 10.7698V42.0482H116.55C117.279 42.0401 118.001 41.9137 118.69 41.6773C119.297 41.4898 119.847 41.1433 120.275 40.6745L119.501 45.3135V45.3175Z" fill="#3E4F3C"/>
<path d="M123.504 14.4593C123.504 13.7296 123.378 13.0081 123.133 12.3191C122.954 11.7077 122.607 11.1573 122.13 10.7334H129.871C129.398 11.1614 129.052 11.7077 128.868 12.3191C128.632 13.0081 128.51 13.7296 128.506 14.4593V41.5634C128.506 42.2931 128.632 43.0147 128.868 43.7036C129.056 44.315 129.402 44.8654 129.871 45.3015H122.13C122.603 44.8735 122.954 44.3191 123.133 43.7036C123.378 43.0187 123.504 42.2931 123.504 41.5634V14.4593Z" fill="#3E4F3C"/>
<path d="M133.08 14.4593C133.08 13.7296 132.953 13.0081 132.709 12.3191C132.529 11.7077 132.183 11.1573 131.706 10.7334H148.06L148.884 15.2909C148.46 14.8139 147.91 14.4674 147.298 14.288C146.613 14.0435 145.888 13.9212 145.158 13.9171H138.13V22.2289H142.549C143.283 22.2289 144.008 22.1026 144.697 21.858C145.309 21.6745 145.855 21.328 146.283 20.8552V26.7497C145.855 26.2768 145.309 25.9303 144.697 25.7469C144.008 25.5023 143.283 25.3759 142.549 25.3759H138.13V41.4371C138.13 42.1668 138.257 42.8883 138.501 43.5772C138.685 44.1927 139.031 44.7431 139.504 45.1752H131.763C132.236 44.7471 132.586 44.1927 132.766 43.5772C133.01 42.8924 133.137 42.1668 133.137 41.4371L133.075 14.4633L133.08 14.4593Z" fill="#3E4F3C"/>
<path d="M151.643 14.4593C151.643 13.7296 151.517 13.0081 151.272 12.3191C151.093 11.7077 150.746 11.1573 150.269 10.7334H166.624L167.447 15.2909C167.023 14.8139 166.473 14.4674 165.862 14.288C165.177 14.0435 164.451 13.9212 163.722 13.9171H156.694V22.2289H161.113C161.846 22.2289 162.572 22.1026 163.261 21.858C163.872 21.6745 164.419 21.328 164.847 20.8552V26.7497C164.419 26.2768 163.872 25.9303 163.261 25.7469C162.572 25.5023 161.846 25.3759 161.113 25.3759H156.694V42.0608H163.722C164.451 42.0526 165.173 41.9262 165.862 41.6898C166.469 41.5023 167.019 41.1558 167.447 40.687L166.665 45.326H150.31C150.783 44.898 151.133 44.3436 151.313 43.728C151.557 43.0432 151.684 42.3176 151.684 41.5879L151.643 14.4633V14.4593Z" fill="#3E4F3C"/>
<path d="M194.617 35.5097C194.637 36.9202 194.376 38.3225 193.854 39.6351C193.377 40.805 192.668 41.8731 191.775 42.7658C190.887 43.6504 189.819 44.3352 188.645 44.7755C187.385 45.2483 186.052 45.4807 184.711 45.4685C183.264 45.4848 181.825 45.228 180.476 44.7062C178.951 44.0621 177.541 43.1857 176.289 42.1054L178.466 36.7164C179.571 40.7317 181.609 42.7413 184.581 42.7413C185.057 42.721 185.53 42.6435 185.987 42.509C186.594 42.3337 187.157 42.0361 187.642 41.6366C188.225 41.1352 188.685 40.5115 188.995 39.8104C189.403 38.828 189.59 37.7722 189.546 36.7082C189.546 34.8412 189.016 33.0068 188.021 31.4292C186.684 29.4399 185.021 27.6871 183.101 26.2481C181.107 24.748 179.391 22.9095 178.03 20.8183C176.978 19.1347 176.42 17.1903 176.415 15.205C176.277 12.8489 177.198 10.5498 178.927 8.93957C180.855 7.38237 183.305 6.62415 185.771 6.81982C187.291 6.79944 188.8 7.07664 190.206 7.64326C190.777 7.87562 191.323 8.16097 191.841 8.49524C192.334 8.80505 192.811 9.13931 193.267 9.49803L191.111 14.1941C190.569 12.9467 189.831 11.7931 188.934 10.7699C188.135 9.97091 187.051 9.53065 185.922 9.54696C184.707 9.48581 183.537 9.99944 182.758 10.9329C181.878 12.058 181.438 13.4644 181.523 14.8871C181.593 16.1671 182.061 17.39 182.86 18.3887C184.063 19.9745 185.469 21.3971 187.035 22.6241C188.302 23.6636 189.493 24.7887 190.597 25.9953C191.494 26.9574 192.277 28.0132 192.937 29.1464C193.508 30.1289 193.944 31.1806 194.242 32.2771C194.507 33.3289 194.633 34.4132 194.613 35.4975L194.617 35.5097Z" fill="#3E4F3C"/>
<path d="M201.645 28.0014C201.645 33.1621 202.154 36.9002 203.169 39.2156C203.878 41.3272 205.872 42.7377 208.098 42.701C209.545 42.7091 210.947 42.1833 212.031 41.2253C213.364 39.9453 214.314 38.3188 214.771 36.5293L215.924 42.4727C214.816 43.4429 213.544 44.2174 212.17 44.7514C210.817 45.2365 209.39 45.4811 207.955 45.4648C200.271 45.4648 196.435 39.6477 196.439 28.0095C196.439 22.3025 197.405 17.953 199.341 14.9609C201.147 12.0462 204.388 10.3382 207.812 10.4931C209.219 10.4401 210.621 10.6643 211.938 11.1576C212.997 11.6345 213.984 12.2623 214.86 13.0246L212.37 17.4923C211.546 14.6714 209.989 13.2569 207.723 13.2569C203.666 13.2692 201.64 18.1894 201.64 28.0136L201.645 28.0014Z" fill="#3E4F3C"/>
<path d="M235.002 18.3768C235.043 19.9544 234.643 21.5116 233.849 22.8731C233.029 24.1694 231.863 25.213 230.485 25.8856C231.529 29.5992 232.442 32.6851 233.225 35.1391C233.849 37.161 234.57 39.1503 235.393 41.1029C235.875 42.3014 236.502 43.4387 237.261 44.4863C237.742 45.1467 238.369 45.6807 239.099 46.0517C238.455 46.1414 237.815 46.2107 237.171 46.2433C236.527 46.2759 235.879 46.2107 235.255 46.0517C234.603 45.8927 233.983 45.6277 233.416 45.269C232.772 44.8614 232.21 44.3314 231.761 43.7118C230.437 41.751 229.458 39.5783 228.859 37.2873C228.044 34.495 227.037 31.1523 225.847 27.2471C225.577 27.2471 225.296 27.3082 225.023 27.3164C224.75 27.3245 224.452 27.3164 224.138 27.3164H223.727V41.5391C223.727 42.2687 223.853 42.9903 224.098 43.6792C224.281 44.2947 224.628 44.8451 225.101 45.2772H217.359C217.832 44.8451 218.179 44.2947 218.362 43.6792C218.599 42.9903 218.721 42.2687 218.725 41.5391V14.4349C218.721 13.7093 218.599 12.9837 218.362 12.2948C218.179 11.6833 217.832 11.137 217.359 10.709H225.39C227.021 10.6601 228.647 10.8925 230.2 11.402C231.284 11.777 232.271 12.3844 233.09 13.1875C233.779 13.8723 234.293 14.7202 234.586 15.6456C234.855 16.5261 234.994 17.4433 234.998 18.3646L235.002 18.3768ZM223.731 25.0132C224.766 25.0499 225.794 24.8542 226.743 24.4425C227.485 24.1001 228.142 23.5987 228.659 22.9668C229.124 22.3717 229.466 21.6909 229.662 20.9572C229.85 20.2193 229.947 19.4611 229.951 18.6988C230.033 17.2069 229.56 15.7353 228.614 14.5735C227.669 13.5544 226.319 13.004 224.929 13.0774H223.723V25.0132H223.731Z" fill="#3E4F3C"/>
<path d="M241.357 14.4593C241.353 13.7337 241.231 13.0081 240.994 12.3191C240.811 11.7077 240.465 11.1614 239.992 10.7334H247.733C247.256 11.1573 246.909 11.7077 246.73 12.3191C246.485 13.004 246.363 13.7296 246.359 14.4593V41.5634C246.359 42.2931 246.485 43.0147 246.73 43.7036C246.913 44.3191 247.26 44.8694 247.733 45.3015H239.992C240.465 44.8694 240.811 44.3191 240.994 43.7036C241.231 43.0147 241.353 42.2931 241.357 41.5634V14.4593Z" fill="#3E4F3C"/>
<path d="M267.284 18.3764C267.386 20.8753 266.334 23.2804 264.434 24.9028C262.526 26.5089 259.848 27.312 256.404 27.312H255.992V41.5469C255.992 42.2766 256.118 42.9981 256.363 43.687C256.546 44.3025 256.893 44.8529 257.366 45.285H249.625C250.097 44.8529 250.444 44.3025 250.627 43.687C250.864 42.9981 250.986 42.2766 250.99 41.5469V14.4427C250.986 13.7171 250.864 12.9915 250.627 12.3026C250.444 11.6911 250.097 11.1449 249.625 10.7168H257.655C259.286 10.6679 260.912 10.9003 262.465 11.4098C263.558 11.7808 264.552 12.3922 265.376 13.1953C266.077 13.8883 266.599 14.7443 266.892 15.686C267.153 16.5584 267.284 17.4633 267.284 18.3764ZM256 25.0129C257.035 25.0496 258.063 24.8539 259.013 24.4422C259.734 24.0916 260.366 23.5902 260.871 22.9665C261.336 22.3713 261.679 21.6906 261.874 20.9568C262.07 20.219 262.172 19.4608 262.176 18.6985C262.278 17.1943 261.813 15.7105 260.871 14.5324C259.922 13.5133 258.568 12.967 257.178 13.0363H255.984L256.004 25.0129H256Z" fill="#3E4F3C"/>
<path d="M274.421 45.3178C274.894 44.8857 275.24 44.3353 275.424 43.7198C275.66 43.0309 275.783 42.3094 275.787 41.5797V13.9537H271.91C271.176 13.9537 270.451 14.0801 269.762 14.3247C269.15 14.5081 268.6 14.8546 268.176 15.3275L269.008 10.77H287.519L288.342 15.3275C287.918 14.8505 287.368 14.504 286.756 14.3247C286.072 14.0801 285.346 13.9578 284.616 13.9537H280.793V41.5389C280.793 42.2686 280.919 42.9901 281.164 43.679C281.347 44.2946 281.693 44.8449 282.166 45.277L274.417 45.3178H274.421Z" fill="#3E4F3C"/>
<path d="M66.6574 5.02216V2.00968C66.6574 0.900888 65.7565 0 64.6477 0H57.2082C56.8699 0 56.5356 0.0285355 56.2054 0.089682L32.9983 4.59821C31.6409 4.86318 30.6625 6.04942 30.6584 7.42726V8.88254L56.7598 5.82114H57.0615C56.128 8.7521 54.9947 11.6137 53.678 14.3939C53.9349 14.4428 54.1795 14.5284 54.4118 14.6466C55.4717 11.7605 56.3685 8.81324 57.0941 5.82114H58.5086C58.207 7.43541 57.5058 10.8392 56.4989 15.5679C57.0941 15.6616 57.6485 15.9266 58.0969 16.3302C58.6839 12.8611 58.9163 9.3391 58.7899 5.82114H60.3675C60.5061 8.62165 60.7588 19.6443 57.2245 34.7638C57.6403 34.6007 58.0847 34.5192 58.529 34.5233C59.1405 34.5151 59.7397 34.6741 60.2656 34.9839C61.2684 29.6438 61.8431 22.2043 60.3879 5.87413H64.5825C78.1733 33.3778 90.5208 46.7322 90.5208 46.7322L93.3336 46.9646L66.6615 5.02216H66.6574ZM57.5425 2.20127C57.5425 1.68356 57.9583 1.26369 58.476 1.25962H64.1993C64.7129 1.25962 65.1328 1.67948 65.1328 2.19312V4.16203H57.5425V2.20534V2.20127Z" fill="#3E4F3C"/>
<path d="M69.5761 22.0777C66.8449 16.9007 64.4969 11.532 62.5483 6.0166C63.6408 12.9343 66.1234 18.6535 68.0311 23.2925C68.398 22.7259 68.9402 22.2979 69.5761 22.0777Z" fill="#3E4F3C"/>
<path d="M80.9625 41.4332C80.6731 40.1084 80.2002 40.0472 79.2463 37.8785C78.3984 36.2235 77.1429 34.8131 75.602 33.7736C75.3329 33.5575 75.0924 33.3129 74.8805 33.0398C74.7296 32.8482 74.6114 32.567 74.3791 32.4284C74.0896 32.3346 73.7839 32.3102 73.4863 32.3591C73.4863 32.3591 73.0338 32.0166 73.4863 31.1851C73.9388 30.3535 74.9538 29.7787 74.3179 27.822C73.898 26.3259 72.671 25.1886 71.1465 24.891C69.8012 24.5201 69.4303 24.5079 67.7956 25.7022C66.161 26.8966 65.3172 27.3084 65.578 28.7147C65.8389 30.1211 67.0537 30.7244 67.0048 31.2462C66.96 31.7394 66.8417 32.2245 66.6542 32.6811C66.4749 33.101 67.3268 33.101 67.4573 33.1825C67.5877 33.264 67.4084 33.4842 67.5266 33.635C67.6448 33.7858 67.9098 33.635 67.9791 33.794C68.0484 33.9529 68.2318 34.3076 68.3826 34.3647C69.0675 34.4707 69.7686 34.3647 70.3923 34.0549C70.9752 33.7532 71.1872 34.4951 70.963 34.8579C70.5798 35.4653 70.3393 36.1501 70.2619 36.8676C70.2374 37.3201 70.2741 37.7685 70.3638 38.2128C70.3638 38.4737 70.6043 38.8569 70.3638 39.2768C70.1477 39.5744 70.001 39.9168 69.9439 40.2796C69.8624 40.8503 69.4221 40.4182 69.2794 41.0133C69.1368 41.6085 68.8677 41.6859 68.668 41.7267C68.4682 41.7675 67.9668 42.008 67.8731 42.2607C67.7793 42.5134 67.7834 43.2635 67.1801 42.8436C66.4015 42.3708 65.4068 42.4564 64.722 43.0556C64.0127 44.0666 64.1187 45.4363 64.9747 46.329C65.5536 46.9405 66.3526 47.2992 67.1923 47.3318L78.7775 47.5845C79.0996 47.3807 79.3849 47.128 79.6214 46.8304C80.0983 46.3453 80.3673 45.6931 80.3633 45.0123C80.3633 44.1196 79.9108 44.0095 80.1839 43.4959C80.457 42.9822 81.2682 42.7621 80.9788 41.4373L80.9625 41.4332Z" fill="#3E4F3C"/>
<path d="M64.5095 40.3608V39.5862C63.6575 37.8578 60.7347 37.4461 60.7347 37.4461C60.7347 37.4461 60.1029 36.2803 57.4736 35.9623L52.7246 40.2181C52.3944 40.1162 52.3618 40.2996 51.893 40.4097C51.5668 40.5279 51.2326 40.6094 50.8902 40.6502C50.5192 40.6502 50.5477 40.3608 50.189 40.3608C49.8303 40.3608 49.8874 40.0184 49.7365 39.8186C49.5857 39.6189 49.2025 39.8186 48.8927 39.358C48.5829 38.9055 48.216 38.4938 47.8002 38.135C47.5189 37.8741 47.2295 37.6214 46.9279 37.3931C46.6262 37.1648 46.6181 37.1037 46.7689 36.8306C46.8708 36.6105 46.777 36.3455 46.5569 36.2395C46.4672 36.158 46.4468 35.9786 46.7159 35.8889C46.9849 35.7993 46.7159 31.3111 46.7159 30.6303C46.7159 29.9496 47.2499 29.4441 47.307 28.8245C47.5108 28.1682 47.7921 27.5404 48.1508 26.9575C48.3098 26.187 48.3098 25.388 48.1508 24.6176C48.1508 24.6176 48.7133 22.1065 49.2759 23.9164C49.8384 25.7264 50.67 26.024 51.1144 26.024C51.3467 26.081 51.5872 25.9995 51.7381 25.812C51.95 25.5307 52.0397 25.1598 52.4107 25.0008C52.48 25.0008 52.4922 24.8092 52.5411 24.6502C52.8428 25.172 53.1852 24.8296 53.5439 24.7521C54.0779 25.494 54.3755 25.4736 54.828 24.6706C54.9381 24.479 54.9788 24.2589 55.0889 24.0795C55.2234 23.8798 55.3702 23.6923 55.5291 23.517C55.6392 24.0673 55.9816 24.5442 56.4708 24.8214C56.5809 24.8948 56.7031 24.9478 56.8336 24.9804C57.2535 25.0619 57.3961 24.9804 57.3268 24.5075C57.3268 24.2752 57.2249 24.0551 57.4981 23.9246C57.5551 23.8798 57.5959 23.8145 57.6081 23.7452C58.0851 22.612 58.2522 21.3728 58.1014 20.1498C57.9465 18.878 57.388 17.6836 56.5156 16.746C56.1039 16.2813 55.5414 15.9756 54.9299 15.8818C54.7505 15.8818 54.5793 15.7228 54.3959 15.6902H54.0535L54.1146 15.7717C53.3238 15.6576 52.5126 15.7147 51.7462 15.943C50.9309 16.1019 50.1972 16.534 49.6591 17.1659L56.6868 5.88232L30.6874 8.89481L0 47.4334L30.4672 47.6861L30.5284 47.5964L55.9368 48C55.9368 48 57.5918 46.7363 57.6122 45.6805C57.6203 45.5052 57.5959 45.3259 57.5429 45.1587L64.5177 40.3689L64.5095 40.3608ZM37.7477 40.3608C38.1676 39.8268 40.1569 35.8237 40.1569 35.8237L40.267 38.1513C40.2792 38.4652 40.4341 38.7547 40.6869 38.934L42.2726 40.0469C40.4749 39.2927 37.7437 40.3567 37.7437 40.3567L37.7477 40.3608ZM40.0265 28.6859L26.9778 46.8953H26.5743L49.6632 9.48181L32.3954 8.89073L52.7246 6.47341L54.8443 6.22067L44.8041 22.1636L40.0265 28.69V28.6859Z" fill="#3E4F3C"/>
</svg>
